<svg width="18" height="20" viewBox="0 0 18 20" fill="none" xmlns="http://www.w3.org/2000/svg">
<path d="M9 6.09575C9.48101 6.09575 9.87097 5.68873 9.87097 5.18666C9.87097 4.68459 9.48101 4.27757 9 4.27757V6.09575ZM3.52673 15.5206C3.95612 15.7469 4.47998 15.567 4.69682 15.1189C4.91365 14.6706 4.74135 14.1239 4.31198 13.8976L3.52673 15.5206ZM8.12903 5.18666C8.12903 5.68873 8.51899 6.09575 9 6.09575C9.48101 6.09575 9.87097 5.68873 9.87097 5.18666H8.12903ZM9.87097 0.90909C9.87097 0.407018 9.48101 0 9 0C8.51899 0 8.12903 0.407018 8.12903 0.90909H9.87097ZM8.99721 4.27757C8.51621 4.27919 8.12752 4.68752 8.12903 5.18959C8.13054 5.69167 8.52178 6.09736 9.00279 6.09575L8.99721 4.27757ZM11.9877 6.49899C12.4524 6.62837 12.9297 6.34 13.0537 5.85489C13.1776 5.36976 12.9014 4.87161 12.4366 4.74221L11.9877 6.49899ZM2.6673 2.6444C2.45348 2.19464 1.93085 2.01097 1.49996 2.23413C1.06906 2.45731 0.89309 3.00281 1.1069 3.45257L2.6673 2.6444ZM2.77799 6.96771C2.99181 7.41745 3.51444 7.6012 3.94533 7.37793C4.37623 7.15478 4.5522 6.6093 4.33839 6.15954L2.77799 6.96771ZM3.2788 18.4749C2.95287 18.8442 2.97545 19.4192 3.32921 19.7595C3.68299 20.0997 4.23399 20.0761 4.55991 19.7069L3.2788 18.4749ZM7.55025 16.319C7.87622 15.9497 7.85357 15.3746 7.49985 15.0344C7.146 14.6942 6.59508 14.7178 6.26911 15.087L7.55025 16.319ZM17.7698 4.73333C18.0956 4.36396 18.0728 3.78884 17.719 3.44877C17.3651 3.1087 16.8141 3.13244 16.4882 3.50181L17.7698 4.73333ZM14.1424 6.1612C13.8167 6.53057 13.8394 7.10569 14.1933 7.44581C14.5471 7.78581 15.0982 7.76205 15.424 7.39272L14.1424 6.1612ZM6.26911 15.087C5.94319 15.4563 5.96576 16.0314 6.31951 16.3716C6.67335 16.7119 7.22427 16.6882 7.55025 16.319L6.26911 15.087ZM9.69677 12.5454L10.3373 13.1614L10.3382 13.1605L9.69677 12.5454ZM15.424 7.39272C15.7499 7.02339 15.7271 6.44836 15.3733 6.10823C15.0194 5.76813 14.4683 5.79187 14.1424 6.1612L15.424 7.39272ZM7.05252 14.8063C6.57801 14.7239 6.12941 15.0586 6.05051 15.5539C5.9716 16.0492 6.29234 16.5174 6.76684 16.5997L7.05252 14.8063ZM17.129 10.5345H18C18 10.513 17.9993 10.4915 17.9978 10.4699L17.129 10.5345ZM15.1907 5.9735C14.7656 5.7386 14.2385 5.90791 14.0134 6.35164C13.7885 6.79539 13.9506 7.34557 14.3757 7.58047L15.1907 5.9735ZM6.64455 12.3233C6.92582 12.7304 7.47023 12.8225 7.86042 12.5288C8.2505 12.2353 8.33876 11.667 8.05738 11.2597L6.64455 12.3233ZM9 8.39514L8.99895 7.48605H8.99303L9 8.39514ZM9.60724 9.48556C10.0149 9.75211 10.5523 9.62326 10.8077 9.19769C11.063 8.77223 10.9396 8.21126 10.5319 7.94472L9.60724 9.48556ZM9 4.27757C6.6168 4.27757 4.41801 4.91118 2.78751 5.98379C1.16833 7.04896 0 8.63478 0 10.5345H1.74194C1.74194 9.48035 2.39335 8.39223 3.71629 7.52193C5.02792 6.65911 6.89365 6.09575 9 6.09575V4.27757ZM0 10.5345C0 12.7083 1.52098 14.4634 3.52673 15.5206L4.31198 13.8976C2.6016 12.9961 1.74194 11.7377 1.74194 10.5345H0ZM9.87097 5.18666V0.90909H8.12903V5.18666H9.87097ZM9.00279 6.09575C10.0104 6.09234 11.014 6.22793 11.9877 6.49899L12.4366 4.74221C11.3147 4.4299 10.1583 4.27367 8.99721 4.27757L9.00279 6.09575ZM1.1069 3.45257L2.77799 6.96771L4.33839 6.15954L2.6673 2.6444L1.1069 3.45257ZM4.55991 19.7069L7.55025 16.319L6.26911 15.087L3.2788 18.4749L4.55991 19.7069ZM16.4882 3.50181L14.1424 6.1612L15.424 7.39272L17.7698 4.73333L16.4882 3.50181ZM7.55025 16.319L10.3373 13.1614L9.05621 11.9294L6.26911 15.087L7.55025 16.319ZM10.3382 13.1605L11.5982 11.729L10.3161 10.498L9.05539 11.9304L10.3382 13.1605ZM11.5982 11.729L15.424 7.39272L14.1424 6.1612L10.3161 10.498L11.5982 11.729ZM6.76684 16.5997C7.50507 16.728 8.25224 16.7921 9.00058 16.7915L9 14.9733C8.3477 14.9738 7.69599 14.9179 7.05252 14.8063L6.76684 16.5997ZM9.00058 16.7915C11.3838 16.7915 13.582 16.1579 15.2124 15.0853C16.8316 14.0201 18 12.4343 18 10.5345H16.2581C16.2581 11.5887 15.6067 12.6768 14.2838 13.5471C12.9721 14.4099 11.1063 14.9733 9 14.9733L9.00058 16.7915ZM17.9978 10.4699C17.868 8.56605 16.8069 6.8665 15.1907 5.9735L14.3757 7.58047C15.4607 8.17999 16.1731 9.32096 16.2603 10.5991L17.9978 10.4699ZM8.05738 11.2597C7.79888 10.8856 7.76195 10.3919 7.96181 9.98035L6.408 9.15841C5.91371 10.1765 6.00494 11.3974 6.64455 12.3233L8.05738 11.2597ZM7.96181 9.98035C8.16166 9.56872 8.56486 9.30787 9.00697 9.30423L8.99303 7.48605C7.89956 7.49514 6.90236 8.14035 6.408 9.15841L7.96181 9.98035ZM9.00105 9.30423C9.21542 9.30399 9.4255 9.36678 9.60724 9.48556L10.5319 7.94472C10.0725 7.64435 9.54104 7.48532 8.99895 7.48605L9.00105 9.30423Z" fill="black"/>
</svg>
