<svg width="19" height="18" viewBox="0 0 19 18" fill="none" xmlns="http://www.w3.org/2000/svg">
<path fill-rule="evenodd" clip-rule="evenodd" d="M18 11.4994C18 14.5372 14.1944 17 9.5 17C4.80557 17 1 14.5372 1 11.4994C1 8.4616 4.80557 6 9.5 6C14.1944 6 18 8.4616 18 11.4994Z" stroke="black" stroke-width="1.8" stroke-linecap="round" stroke-linejoin="round"/>
<path fill-rule="evenodd" clip-rule="evenodd" d="M11.9995 11.4486C12.0203 12.4642 11.4246 13.3915 10.4924 13.7946C9.55997 14.1977 8.47644 13.9967 7.75074 13.286C7.02508 12.5753 6.8016 11.4961 7.18533 10.5557C7.56904 9.61512 8.48372 9.00028 9.49955 9.00014C10.1557 8.99328 10.7878 9.24742 11.2566 9.70655C11.7255 10.1658 11.9926 10.7924 11.9995 11.4486Z" stroke="black" stroke-width="1.8" stroke-linecap="round" stroke-linejoin="round"/>
<path d="M8.57276 5.54232C8.57276 6.09165 8.98792 6.53699 9.50001 6.53699C10.0121 6.53699 10.4273 6.09165 10.4273 5.54232H8.57276ZM10.4273 0.994673C10.4273 0.445335 10.0121 0 9.50001 0C8.98792 0 8.57276 0.445335 8.57276 0.994673H10.4273ZM17.8986 3.71969C18.1313 3.23031 17.95 2.63128 17.4938 2.38172C17.0376 2.13217 16.4791 2.32658 16.2466 2.81597L17.8986 3.71969ZM14.47 6.55329C14.2373 7.04268 14.4185 7.64174 14.8747 7.8912C15.331 8.1408 15.8894 7.94637 16.122 7.45701L14.47 6.55329ZM2.75349 2.81597C2.52085 2.32658 1.96242 2.13217 1.50621 2.38172C1.04999 2.63128 0.86876 3.23031 1.1014 3.71969L2.75349 2.81597ZM2.87802 7.45701C3.11066 7.94637 3.66909 8.1408 4.1253 7.8912C4.58152 7.64174 4.76275 7.04268 4.53011 6.55329L2.87802 7.45701ZM10.4273 5.54232V0.994673H8.57276V5.54232H10.4273ZM16.2466 2.81597L14.47 6.55329L16.122 7.45701L17.8986 3.71969L16.2466 2.81597ZM1.1014 3.71969L2.87802 7.45701L4.53011 6.55329L2.75349 2.81597L1.1014 3.71969Z" fill="black"/>
</svg>
