<svg width="218" height="218" viewBox="0 0 218 218" fill="none" xmlns="http://www.w3.org/2000/svg">
<mask id="path-1-inside-1_401_73" fill="white">
<path fill-rule="evenodd" clip-rule="evenodd" d="M109 218C169.199 218 218 169.199 218 109C218 48.801 169.199 0 109 0C48.801 0 0 48.801 0 109C0 169.199 48.801 218 109 218ZM174.364 109C173.84 124.597 169.67 137.759 162.709 148.094C151.874 169.267 126.468 199.84 78.875 204.723C91.5261 197.283 102.52 186.981 110.79 174.392C110.419 174.397 110.047 174.4 109.674 174.4C73.1822 174.4 43.6 145.119 43.6 109C43.6 72.8806 73.1822 43.6 109.674 43.6C146.165 43.6 175.576 72.9005 174.364 109Z"/>
</mask>
<path fill-rule="evenodd" clip-rule="evenodd" d="M109 218C169.199 218 218 169.199 218 109C218 48.801 169.199 0 109 0C48.801 0 0 48.801 0 109C0 169.199 48.801 218 109 218ZM174.364 109C173.84 124.597 169.67 137.759 162.709 148.094C151.874 169.267 126.468 199.84 78.875 204.723C91.5261 197.283 102.52 186.981 110.79 174.392C110.419 174.397 110.047 174.4 109.674 174.4C73.1822 174.4 43.6 145.119 43.6 109C43.6 72.8806 73.1822 43.6 109.674 43.6C146.165 43.6 175.576 72.9005 174.364 109Z" fill="#0F0F0F"/>
<path d="M162.709 148.094L161.879 147.535L161.846 147.585L161.819 147.638L162.709 148.094ZM174.364 109L175.363 109.034L174.364 109ZM78.875 204.723L78.3681 203.861L78.9771 205.718L78.875 204.723ZM110.79 174.392L111.625 174.941L112.66 173.367L110.776 173.393L110.79 174.392ZM217 109C217 168.647 168.647 217 109 217V219C169.751 219 219 169.751 219 109H217ZM109 1C168.647 1 217 49.3532 217 109H219C219 48.2487 169.751 -1 109 -1V1ZM1 109C1 49.3532 49.3532 1 109 1V-1C48.2487 -1 -1 48.2487 -1 109H1ZM109 217C49.3532 217 1 168.647 1 109H-1C-1 169.751 48.2487 219 109 219V217ZM163.538 148.653C170.618 138.141 174.834 124.791 175.363 109.034L173.364 108.966C172.846 124.403 168.721 137.377 161.879 147.535L163.538 148.653ZM78.9771 205.718C127.011 200.79 152.664 169.918 163.599 148.55L161.819 147.638C151.084 168.616 125.925 198.89 78.773 203.728L78.9771 205.718ZM109.954 173.843C101.77 186.301 90.8899 196.497 78.3681 203.861L79.382 205.585C92.1623 198.069 103.27 187.661 111.625 174.941L109.954 173.843ZM109.674 175.4C110.051 175.4 110.428 175.397 110.803 175.392L110.776 173.393C110.41 173.398 110.042 173.4 109.674 173.4V175.4ZM42.6 109C42.6 145.681 72.6396 175.4 109.674 175.4V173.4C73.7248 173.4 44.6 144.558 44.6 109H42.6ZM109.674 42.6C72.6396 42.6 42.6 72.3187 42.6 109H44.6C44.6 73.4425 73.7248 44.6 109.674 44.6V42.6ZM175.363 109.034C176.596 72.343 146.704 42.6 109.674 42.6V44.6C145.626 44.6 174.557 73.458 173.364 108.966L175.363 109.034Z" fill="url(#paint0_linear_401_73)" mask="url(#path-1-inside-1_401_73)"/>
<defs>
<linearGradient id="paint0_linear_401_73" x1="30.52" y1="32.7" x2="204.92" y2="174.4" gradientUnits="userSpaceOnUse">
<stop stop-color="#434242"/>
<stop offset="0.465" stop-color="#FFFBFB"/>
<stop offset="0.98" stop-color="#2D2C2C"/>
</linearGradient>
</defs>
</svg>
